{
  "source": "C:\\Users\\Peter\\Desktop\\stuff\\MIUN\\quantitative_research\\video_compression\\videos\\BVI-HD\\Boxing_1920x1080_30fps.mp4",
  "output": "C:\\Users\\Peter\\Desktop\\stuff\\MIUN\\quantitative_research\\video_compression\\compressed_videos\\BVI-HD\\h264\\12\\Boxing_1920x1080_30fps_h264.mp4",
  "codec": "h264",
  "ok": "Input #0, mov,mp4,m4a,3gp,3g2,mj2, from 'C:\\Users\\Peter\\Desktop\\stuff\\MIUN\\quantitative_research\\video_compression\\videos\\BVI-HD\\Boxing_1920x1080_30fps.mp4':\n  Metadata:\n    major_brand     : isom\n    minor_version   : 512\n    compatible_brands: isomiso2avc1mp41\n    encoder         : Lavf54.28.101\n  Duration: 00:00:05.00, start: 0.000000, bitrate: 238363 kb/s\n  Stream #0:0[0x1](und): Video: h264 (High 4:4:4 Predictive) (avc1 / 0x31637661), yuv420p(progressive), 1920x1080, 238359 kb/s, 30 fps, 30 tbr, 30 tbn (default)\n    Metadata:\n      handler_name    : VideoHandler\n      vendor_id       : [0][0][0][0]\n[out#0/mp4 @ 0000021dabbb1580] Codec AVOption b:a (set bitrate (in bits/s)) has not been used for any stream. The most likely reason is either wrong type (e.g. a video option with no video streams) or that it is a private option of some decoder which was not actually used for any stream.\nStream mapping:\n  Stream #0:0 -> #0:0 (h264 (native) -> h264 (libx264))\nPress [q] to stop, [?] for help\n[libx264 @ 0000021dac44ba00] using cpu capabilities: MMX2 SSE2Fast SSSE3 SSE4.2 AVX FMA3 BMI2 AVX2\n[libx264 @ 0000021dac44ba00] profile High, level 5.0, 4:2:0, 8-bit\n[libx264 @ 0000021dac44ba00] 264 - core 165 r3222 b35605a - H.264/MPEG-4 AVC codec - Copyleft 2003-2025 - http://www.videolan.org/x264.html - options: cabac=1 ref=5 deblock=1:0:0 analyse=0x3:0x113 me=hex subme=8 psy=1 psy_rd=1.00:0.00 mixed_ref=1 me_range=16 chroma_me=1 trellis=2 8x8dct=1 cqm=0 deadzone=21,11 fast_pskip=1 chroma_qp_offset=-2 threads=18 lookahead_threads=3 sliced_threads=0 nr=0 decimate=1 interlaced=0 bluray_compat=0 constrained_intra=0 bframes=3 b_pyramid=2 b_adapt=1 b_bias=0 direct=3 weightb=1 open_gop=0 weightp=2 keyint=250 keyint_min=25 scenecut=40 intra_refresh=0 rc_lookahead=50 rc=cbr mbtree=1 bitrate=12000 ratetol=1.0 qcomp=0.60 qpmin=0 qpmax=69 qpstep=4 vbv_maxrate=12000 vbv_bufsize=12000 nal_hrd=none filler=0 ip_ratio=1.40 aq=1:1.00\nOutput #0, mp4, to 'C:\\Users\\Peter\\Desktop\\stuff\\MIUN\\quantitative_research\\video_compression\\compressed_videos\\BVI-HD\\h264\\12\\Boxing_1920x1080_30fps_h264.mp4':\n  Metadata:\n    major_brand     : isom\n    minor_version   : 512\n    compatible_brands: isomiso2avc1mp41\n    encoder         : Lavf62.3.100\n  Stream #0:0(und): Video: h264 (avc1 / 0x31637661), yuv420p(tv, progressive), 1920x1080, q=2-31, 12000 kb/s, 30 fps, 15360 tbn (default)\n    Metadata:\n      encoder         : Lavc62.11.100 libx264\n      handler_name    : VideoHandler\n      vendor_id       : [0][0][0][0]\n    Side data:\n      cpb: bitrate max/min/avg: 12000000/0/12000000 buffer size: 12000000 vbv_delay: N/A\nframe=    0 fps=0.0 q=0.0 size=       0KiB time=N/A bitrate=N/A speed=N/A elapsed=0:00:01.58    \nframe=    0 fps=0.0 q=0.0 size=       0KiB time=N/A bitrate=N/A speed=N/A elapsed=0:00:02.19    \nframe=    0 fps=0.0 q=0.0 size=       0KiB time=N/A bitrate=N/A speed=N/A elapsed=0:00:02.90    \nframe=    0 fps=0.0 q=0.0 size=       0KiB time=N/A bitrate=N/A speed=N/A elapsed=0:00:03.61    \nframe=    0 fps=0.0 q=0.0 size=       0KiB time=N/A bitrate=N/A speed=N/A elapsed=0:00:04.29    \nframe=    0 fps=0.0 q=0.0 size=       0KiB time=N/A bitrate=N/A speed=N/A elapsed=0:00:04.96    \nframe=    1 fps=0.2 q=26.0 size=       0KiB time=-00:00:00.03 bitrate=N/A speed=N/A elapsed=0:00:05.68    \nframe=    6 fps=0.9 q=26.0 size=     256KiB time=00:00:00.13 bitrate=15731.6kbits/s speed=0.0208x elapsed=0:00:06.42    \nframe=   10 fps=1.4 q=24.0 size=     256KiB time=00:00:00.26 bitrate=7865.8kbits/s speed=0.0372x elapsed=0:00:07.16    \nframe=   10 fps=1.3 q=24.0 size=     256KiB time=00:00:00.26 bitrate=7865.8kbits/s speed=0.0336x elapsed=0:00:07.92    \nframe=   25 fps=2.9 q=23.0 size=     768KiB time=00:00:00.60 bitrate=10486.4kbits/s speed=0.0706x elapsed=0:00:08.49    \nframe=   28 fps=3.0 q=23.0 size=    1024KiB time=00:00:00.86 bitrate=9679.6kbits/s speed=0.0939x elapsed=0:00:09.22    \nframe=   30 fps=3.0 q=23.0 size=    1024KiB time=00:00:00.93 bitrate=8988.2kbits/s speed=0.094x elapsed=0:00:09.93    \nframe=   34 fps=3.2 q=23.0 size=    1280KiB time=00:00:01.06 bitrate=9830.8kbits/s speed=0.0999x elapsed=0:00:10.67    \nframe=   42 fps=3.7 q=24.0 size=    1536KiB time=00:00:01.20 bitrate=10486.1kbits/s speed=0.106x elapsed=0:00:11.36    \nframe=   46 fps=3.8 q=24.0 size=    1792KiB time=00:00:01.33 bitrate=11010.3kbits/s speed=0.11x elapsed=0:00:12.15    \nframe=   51 fps=3.9 q=25.0 size=    2048KiB time=00:00:01.53 bitrate=10941.9kbits/s speed=0.117x elapsed=0:00:13.12    \nframe=   52 fps=3.7 q=25.0 size=    2048KiB time=00:00:01.66 bitrate=10066.6kbits/s speed=0.119x elapsed=0:00:14.01    \nframe=   56 fps=3.8 q=25.0 size=    2304KiB time=00:00:01.66 bitrate=11324.8kbits/s speed=0.113x elapsed=0:00:14.75    \nframe=   64 fps=4.1 q=25.0 size=    2816KiB time=00:00:02.06 bitrate=11162.4kbits/s speed=0.133x elapsed=0:00:15.49    \nframe=   64 fps=4.0 q=25.0 size=    2816KiB time=00:00:02.06 bitrate=11162.4kbits/s speed=0.128x elapsed=0:00:16.17    \nframe=   77 fps=4.6 q=25.0 size=    3328KiB time=00:00:02.40 bitrate=11359.7kbits/s speed=0.142x elapsed=0:00:16.90    \nframe=   82 fps=4.6 q=25.0 size=    3584KiB time=00:00:02.66 bitrate=11010.2kbits/s speed=0.151x elapsed=0:00:17.66    \nframe=   84 fps=4.6 q=25.0 size=    3840KiB time=00:00:02.73 bitrate=11508.9kbits/s speed=0.149x elapsed=0:00:18.37    \nframe=   87 fps=4.6 q=25.0 size=    3840KiB time=00:00:02.73 bitrate=11508.9kbits/s speed=0.144x elapsed=0:00:19.04    \nframe=   92 fps=4.6 q=25.0 size=    4096KiB time=00:00:02.90 bitrate=11570.6kbits/s speed=0.145x elapsed=0:00:19.97    \nframe=  100 fps=4.8 q=25.0 size=    4608KiB time=00:00:03.13 bitrate=12047.6kbits/s speed=0.151x elapsed=0:00:20.70    \nframe=  103 fps=4.8 q=25.0 size=    4864KiB time=00:00:03.36 bitrate=11835.5kbits/s speed=0.157x elapsed=0:00:21.42    \nframe=  103 fps=4.7 q=25.0 size=    4864KiB time=00:00:03.36 bitrate=11835.5kbits/s speed=0.153x elapsed=0:00:22.06    \nframe=  103 fps=4.5 q=25.0 size=    4864KiB time=00:00:03.36 bitrate=11835.5kbits/s speed=0.149x elapsed=0:00:22.66    \nframe=  112 fps=4.8 q=25.0 size=    5120KiB time=00:00:03.50 bitrate=11983.8kbits/s speed=0.151x elapsed=0:00:23.23    \nframe=  119 fps=5.0 q=25.0 size=    5632KiB time=00:00:03.90 bitrate=11830.2kbits/s speed=0.164x elapsed=0:00:23.84    \nframe=  121 fps=4.9 q=25.0 size=    5632KiB time=00:00:03.96 bitrate=11631.4kbits/s speed=0.162x elapsed=0:00:24.44    \nframe=  123 fps=4.9 q=25.0 size=    5888KiB time=00:00:04.03 bitrate=11959.1kbits/s speed=0.161x elapsed=0:00:25.04    \nframe=  135 fps=5.3 q=-1.0 size=    6400KiB time=00:00:04.33 bitrate=12099.0kbits/s speed=0.169x elapsed=0:00:25.68    \nframe=  139 fps=5.3 q=-1.0 size=    6656KiB time=00:00:04.56 bitrate=11940.1kbits/s speed=0.173x elapsed=0:00:26.35    \nframe=  144 fps=5.3 q=-1.0 size=    6912KiB time=00:00:04.56 bitrate=12399.3kbits/s speed=0.168x elapsed=0:00:27.12    \n[mp4 @ 0000021dabbb1680] Starting second pass: moving the moov atom to the beginning of the file\n[out#0/mp4 @ 0000021dabbb1580] video:7184KiB audio:0KiB subtitle:0KiB other streams:0KiB global headers:0KiB muxing overhead: 0.036904%\nframe=  150 fps=5.5 q=-1.0 Lsize=    7187KiB time=00:00:04.93 bitrate=11934.4kbits/s speed=0.179x elapsed=0:00:27.51    \n[libx264 @ 0000021dac44ba00] frame I:1     Avg QP:20.37  size:163718\n[libx264 @ 0000021dac44ba00] frame P:40    Avg QP:21.68  size: 84754\n[libx264 @ 0000021dac44ba00] frame B:109   Avg QP:22.81  size: 34883\n[libx264 @ 0000021dac44ba00] consecutive B-frames:  0.7%  2.7% 14.0% 82.7%\n[libx264 @ 0000021dac44ba00] mb I  I16..4:  6.3% 88.8%  4.9%\n[libx264 @ 0000021dac44ba00] mb P  I16..4:  2.5% 23.9%  2.3%  P16..4: 44.3% 14.2%  5.9%  0.0%  0.0%    skip: 6.8%\n[libx264 @ 0000021dac44ba00] mb B  I16..4:  0.8%  8.0%  1.1%  B16..8: 38.7%  7.5%  1.2%  direct: 6.1%  skip:36.7%  L0:47.6% L1:45.6% BI: 6.8%\n[libx264 @ 0000021dac44ba00] 8x8 transform intra:82.3% inter:78.8%\n[libx264 @ 0000021dac44ba00] direct mvs  spatial:91.7% temporal:8.3%\n[libx264 @ 0000021dac44ba00] coded y,uvDC,uvAC intra: 79.0% 80.9% 40.1% inter: 26.3% 32.0% 1.6%\n[libx264 @ 0000021dac44ba00] i16 v,h,dc,p: 14% 11%  3% 72%\n[libx264 @ 0000021dac44ba00] i8 v,h,dc,ddl,ddr,vr,hd,vl,hu: 15% 11% 10%  8% 12% 12% 12% 10% 11%\n[libx264 @ 0000021dac44ba00] i4 v,h,dc,ddl,ddr,vr,hd,vl,hu: 15% 10%  8%  9% 15% 13% 12%  9%  8%\n[libx264 @ 0000021dac44ba00] i8c dc,h,v,p: 40% 22% 22% 16%\n[libx264 @ 0000021dac44ba00] Weighted P-Frames: Y:7.5% UV:7.5%\n[libx264 @ 0000021dac44ba00] ref P L0: 42.5% 12.4% 25.2%  9.0% 10.4%  0.5%\n[libx264 @ 0000021dac44ba00] ref B L0: 69.9% 19.6%  7.8%  2.6%\n[libx264 @ 0000021dac44ba00] ref B L1: 93.9%  6.1%\n[libx264 @ 0000021dac44ba00] kb/s:11769.75\n",
  "seconds": 30.35673475265503,
  "probe_out": {}
}